<svg data-name="Layer 1"
     id="Layer_1"
     viewBox="0 0 212.22 42.96"
     xmlns="http://www.w3.org/2000/svg">
  <defs>
    <style>.cls-1{fill:#fff}</style>
  </defs>
  <path class="cls-1"
        d="M57.72 38.34q-3.63 7.27-10.33 7.27t-9.51-9A47.67 47.67 0 0 1 36 22.2c0-2.1.09-4.34.25-6.69a107.42 107.42 0 0 0-7.59 18.85H19.1v-18.9a103.06 103.06 0 0 0-7.42 18.9H1.64A136.41 136.41 0 0 0 17.46 2.68h10a124.35 124.35 0 0 0-1.56 18.88q4.77-9.84 8.71-18.88h11.33a39.76 39.76 0 0 0-2.66 14.54c0 .65 0 1.46.07 2.42a59.88 59.88 0 0 0 .73 7.52 27.67 27.67 0 0 0 2.34 7.12q2.71 5.58 6.42 5.58t4.88-1.52z"
        transform="translate(-1.64 -2.66)" />
  <path class="cls-1"
        d="M71.77 12.54a153.46 153.46 0 0 0-6.65 21.82h-8.34l.37-1.22a10 10 0 0 1-5 1.37 6.42 6.42 0 0 1-5.25-2.32 8.48 8.48 0 0 1-1.77-5.58A15.17 15.17 0 0 1 48.61 17q3.68-4.65 8.74-4.65 3.7 0 5.4 2.36l.67-2.19zm-11.43 8A2.28 2.28 0 0 0 57.77 18a4.24 4.24 0 0 0-3.21 1.53 4.94 4.94 0 0 0-1.39 3.38 2.4 2.4 0 0 0 2.71 2.73A4.06 4.06 0 0 0 59.12 24a5.29 5.29 0 0 0 1.22-3.45zM95.12 12.54l-11.07 11 5.47 10.8h-8.34l-3.31-6.58q-.75 3.24-1.35 6.58h-9.14Q71.19 24.49 76.62 4h9.19a117.36 117.36 0 0 0-5.67 15.14l6.58-6.63z"
        transform="translate(-1.64 -2.66)" />
  <path class="cls-1"
        d="M113.15 20.26c0 1-.09 2.33-.27 4H98.51a4.07 4.07 0 0 0-.2 1.32 2.23 2.23 0 0 0 1.12 1.91 3.9 3.9 0 0 0 2.22.68 5.24 5.24 0 0 0 4-2.15h6.27a14.37 14.37 0 0 1-4.88 6.3 12.37 12.37 0 0 1-7.52 2.49 7.88 7.88 0 0 1-5.84-2.19 8 8 0 0 1-2.18-5.87 14.18 14.18 0 0 1 4.24-9.94 13 13 0 0 1 9.66-4.48q7.75.04 7.75 7.93zm-5.6.57a2.7 2.7 0 0 0-3-2.76q-2.34 0-4.53 2.76z"
        transform="translate(-1.64 -2.66)" />
  <path class="cls-1"
        d="M142.21 8.61a4.94 4.94 0 0 1-1.21 3.28 3.81 3.81 0 0 1-3 1.52 7.61 7.61 0 0 1-3.76-1.24 4.18 4.18 0 0 0 1.42-2.57 1.66 1.66 0 0 0-.75-1.37 2.68 2.68 0 0 0-1.59-.54c-2.06 0-3.09 1.13-3.09 3.41a5.89 5.89 0 0 0 2.34 4.38l4.33 3.84a10.31 10.31 0 0 1 2.32 6.84q0 4.64-4.48 7.87a14.9 14.9 0 0 1-8.9 3 17.19 17.19 0 0 1-8.84-2.18 9.61 9.61 0 0 1-3.28-3.22 7.89 7.89 0 0 1-1.3-4.3 7.31 7.31 0 0 1 3.58-6.62 6.61 6.61 0 0 1 3.51-1.12 8.77 8.77 0 0 1 5.06 1.92 3.73 3.73 0 0 0-2.57 3.61q0 3.43 4.33 3.43t4.26-3.81a6.08 6.08 0 0 0-2.29-4.53l-4.3-3.78a8.57 8.57 0 0 1-2.27-5.86q0-7.91 11.11-7.91 9.37 0 9.37 5.95z"
        transform="translate(-1.64 -2.66)" />
  <path class="cls-1"
        d="M162.51 16.53a38.18 38.18 0 0 1-1.57 9c-.46 1.76-1.35 4.7-2.66 8.84h-6.56l3.8-12.53a5 5 0 0 0 .24-1.37c0-1.28-.74-1.92-2.24-1.92-1.78 0-3 1-3.66 3a105.55 105.55 0 0 0-3 12.78h-9.14q3.77-9.84 9.18-30.33h9.21q-2 4.92-3.81 10a7.91 7.91 0 0 1 5.25-1.7q4.97.04 4.96 4.23zM175.94 12.54l-6.62 21.82H161l6.62-21.82zm2.88-4.88a3.13 3.13 0 0 1-2 2.77 7.71 7.71 0 0 1-3.56.84 8.08 8.08 0 0 1-3.64-.84 3.11 3.11 0 0 1-2-2.79q0-1.77 2.19-2.79a8.63 8.63 0 0 1 3.66-.85 7.16 7.16 0 0 1 3.48.82 3.11 3.11 0 0 1 1.87 2.84z"
        transform="translate(-1.64 -2.66)" />
  <path class="cls-1"
        d="M201.71 10a12 12 0 0 0-4.93-.73q-5 0-7.5 5.71c1.4 0 2.82-.1 4.28-.18l-2.09 6.88c-1.54-.08-3-.14-4.51-.18-.28 1-.57 2.05-.87 3.19q-3.76 13.55-7.15 17.73a7.4 7.4 0 0 1-6.07 2.69q-4.14 0-10.36-6.23a11.93 11.93 0 0 0 4.93.73 7.59 7.59 0 0 0 5.28-2.1q2.49-2.28 5.33-13.32l.8-2.69c-1.51 0-3 .09-4.36.18l2.09-6.88c1.41.09 2.88.14 4.41.18a33.21 33.21 0 0 1 3.48-7.5 8.19 8.19 0 0 1 6.88-3.71q4.13-.02 10.36 6.23z"
        transform="translate(-1.64 -2.66)" />
  <path class="cls-1"
        d="M213.86 12.37l-2.07 6.87-5.1-.2a130.64 130.64 0 0 0-3.64 15.32h-9.14q2.27-5.8 5.09-15.36c-1.74.05-3.43.12-5.06.2l2.06-6.83c1.55.08 3.17.14 4.86.17q1.09-4 2.29-8.51h9.22c-1.28 2.8-2.45 5.64-3.49 8.51z"
        transform="translate(-1.64 -2.66)" />
</svg>
